<?xml version="1.0" encoding="UTF-8"?>
<!DOCTYPE svg PUBLIC "-//W3C//DTD SVG 1.1//EN" "http://www.w3.org/Graphics/SVG/1.1/DTD/svg11.dtd">
<!-- Creator: CorelDRAW 2020 (64 Bit) -->
<svg xmlns="http://www.w3.org/2000/svg" xml:space="preserve" width="136.88mm" height="126.422mm" version="1.1" style="shape-rendering:geometricPrecision; text-rendering:geometricPrecision; image-rendering:optimizeQuality; fill-rule:evenodd; clip-rule:evenodd"
viewBox="0 0 9293.38 8583.35"
 xmlns:xlink="http://www.w3.org/1999/xlink"
 xmlns:xodm="http://www.corel.com/coreldraw/odm/2003">
 <defs>
  <style type="text/css">
   <![CDATA[
    .fil0 {fill:#FEFEFE}
    .fil18 {fill:#D2D3D5}
    .fil16 {fill:#96989A}
    .fil17 {fill:#848688}
    .fil1 {fill:#606062}
    .fil2 {fill:#373435}
    .fil12 {fill:#DA5E62}
    .fil15 {fill:#5294AC}
    .fil3 {fill:#001331}
    .fil4 {fill:#192F47}
    .fil11 {fill:#4E5F71}
    .fil5 {fill:#506173}
    .fil14 {fill:#5294AC}
    .fil6 {fill:#C99FCF}
    .fil7 {fill:#E7D4E8}
    .fil10 {fill:#EB8C7A}
    .fil13 {fill:#FCCCD8}
    .fil8 {fill:#FF8B92}
    .fil9 {fill:#FFCADE}
    .fil19 {fill:url(#id0)}
    .fil20 {fill:url(#id1)}
   ]]>
  </style>
  <linearGradient id="id0" gradientUnits="userSpaceOnUse" x1="4349.65" y1="6581.99" x2="4349.66" y2="4324.71">
   <stop offset="0" style="stop-opacity:1; stop-color:#00D3CF"/>
   <stop offset="1" style="stop-opacity:1; stop-color:#FF729A"/>
  </linearGradient>
  <linearGradient id="id1" gradientUnits="userSpaceOnUse" xlink:href="#id0" x1="7832.35" y1="3526.48" x2="7832.34" y2="5462.89">
  </linearGradient>
 </defs>
 <g id="Camada_x0020_1">
  <metadata id="CorelCorpID_0Corel-Layer"/>
  <g id="_2247782555792">
   <path class="fil0" d="M1123.56 1285.24c2493.33,-1458.38 4455.82,-1685.21 5866.32,-631.44 1877.77,1646.35 2730.18,3345.73 2095.75,5122.02 -722.46,1070.83 -1738.71,1926.22 -3110.87,2520.6 -1812.81,884.3 -3412.18,-365.5 -4921.69,-2514.16 -1402.26,-2073.57 -1429.25,-3592.9 70.48,-4497.01z"/>
   <g>
    <path class="fil1" d="M5317.96 5865.37l-2312.65 550.22 -41.5 153.23 755.43 624.77 2025.38 -714.6c85.19,-30.71 196.95,-159.27 132.01,-219.79l-558.68 -393.83z"/>
    <polygon class="fil0" points="5295.76,5935.16 3102.93,6449.76 3761.24,6982.9 5777.9,6273.59 "/>
    <polygon class="fil2" points="3753.38,6800.53 3644.17,6838.02 3764.71,6921.47 3864.38,6883.22 "/>
    <polygon class="fil2" points="4004.05,6732.73 3894.84,6770.22 4001.15,6843.81 4100.82,6805.57 "/>
    <polygon class="fil2" points="4132.69,6680.57 4023.49,6718.06 4129.8,6791.67 4229.47,6753.41 "/>
    <polygon class="fil2" points="4248.6,6638.85 4139.39,6676.33 4245.7,6749.94 4345.37,6711.69 "/>
    <polygon class="fil2" points="3676.89,6667.25 3513.2,6718.64 3615.97,6789.78 3770.11,6737.63 "/>
    <polygon class="fil2" points="3871.6,6629.2 3762.39,6666.69 3882.93,6750.13 3982.6,6711.89 "/>
    <polygon class="fil2" points="3996.78,6572.41 3887.57,6609.9 4008.11,6693.34 4107.78,6655.1 "/>
    <polygon class="fil2" points="4153.6,6546.26 4044.39,6583.75 4139.08,6649.3 4238.74,6611.05 "/>
    <polygon class="fil2" points="4367.89,6607.36 4281.99,6635.91 4376.67,6701.45 4453.03,6672.15 "/>
    <polygon class="fil2" points="4518.38,6550.69 4432.47,6579.24 4527.16,6644.79 4603.52,6615.49 "/>
    <polygon class="fil2" points="4634.28,6514.77 4548.38,6543.31 4643.05,6608.86 4719.42,6579.56 "/>
    <polygon class="fil2" points="4732.86,6479.2 4646.96,6507.75 4741.64,6573.3 4818,6543.99 "/>
    <polygon class="fil2" points="4831.37,6444.43 4745.47,6472.98 4840.15,6538.53 4916.52,6509.22 "/>
    <polygon class="fil2" points="4973.93,6385.32 4888.03,6413.87 4982.71,6479.42 5059.08,6450.11 "/>
    <polygon class="fil2" points="5063.18,6348.23 4977.27,6376.78 5071.96,6442.33 5148.32,6413.03 "/>
    <polygon class="fil2" points="3624.73,6555.98 3461.06,6607.38 3563.81,6678.51 3717.95,6626.36 "/>
    <polygon class="fil2" points="3423.07,6485.29 3259.39,6536.68 3362.15,6607.81 3516.29,6555.66 "/>
    <polygon class="fil2" points="4119.98,6424.57 4010.78,6462.06 4105.46,6527.6 4205.13,6489.36 "/>
    <polygon class="fil2" points="4119.89,6312.47 4034.58,6341.76 4108.54,6392.96 4186.4,6363.08 "/>
    <g>
     <g>
      <path class="fil3" d="M2125.77 4130.23c110.39,343.4 144.1,768.62 185.97,1170.54 43.93,421.69 66.24,856 68.55,1301.97 -8.81,28.98 -37.09,91.33 27.82,76.5l615.85 -136.17 120.82 -142.92 2159.29 -2372.76c148.55,-423.29 195.97,-794.57 19.92,-1050.92l-891.85 -1391.52c-66.6,-100.6 -169.97,-166.27 -325.49,-182.4l-574.98 -40.62c-199,-5.73 -345.47,63.79 -448.78,213.62 -81.08,117.59 -129.41,290.8 -135.01,536.62 0,162.02 -22.15,150.1 -67.59,191.82 -263.18,211.96 -887.49,508.64 -930.55,1139.14 -13.15,192.49 63.61,428.71 176.04,687.12z"/>
      <path class="fil4" d="M2679.47 6553.15l79.78 -17.05 238.37 -50.95 17.19 -70.89 96.21 -22.58 10.79 -218.76 3.34 -67.74 2011.15 -2029.78c26.14,-291.98 158.09,-642.85 23.24,-901.78 -0.02,-0.04 -0.05,-0.1 -0.07,-0.14l-1134.88 -1533.56c-339.78,-87.07 -596.96,-75.05 -741.18,72.54 -175.62,174.17 250.08,583 -559.87,1061.5 -420.34,266.38 -609.68,719.77 -337.01,1459.16 275.56,923.08 331.64,1640.99 292.96,2320.03z"/>
      <path class="fil5" d="M5261.74 3948.79c113.63,-337.6 160.66,-645.29 47.04,-880.86l-877.42 -1321.77c-73.86,-158.64 -183.54,-256.16 -336.22,-280.36l-567.85 -42.85c-327.67,-0.74 -522.61,215.37 -521.11,752.43 8.69,151.58 -95.79,186.68 -174.98,235.69 -179.13,109.66 -325.66,233.22 -452.63,353.32 -341.58,292.01 -394.87,583.37 -359.03,815.5 37.97,245.91 158.33,469.46 220.69,708.57 61.75,337.11 107.12,680.49 139.25,1028.92 38.92,422.02 69.92,850.08 64.15,1286.19l235.82 -50.4c38.69,-679.04 -17.39,-1396.95 -292.96,-2320.03 -272.66,-739.39 -83.33,-1192.78 337.01,-1459.16 809.95,-478.5 384.25,-887.33 559.87,-1061.5 144.22,-147.59 401.4,-159.61 741.18,-72.54l1134.88 1533.56c0.03,0.04 0.05,0.1 0.07,0.14 134.85,258.93 2.9,609.8 -23.24,901.78l125.45 -126.61z"/>
      <path class="fil3" d="M3152.47 2776.99l-34.91 -26.44c-249.21,105.22 -769.89,242 -741.3,574.5 9.97,132.5 97.79,420.73 130.89,410.12l645.74 -286.08c12.29,-4.22 18.6,-15.53 18.53,-34.43l-18.94 -637.67z"/>
     </g>
     <g>
      <path class="fil3" d="M4824.16 1497.46c-565.71,-129.17 -994.33,74.39 -1105.69,731.05 -180.1,76.85 -236.49,284.75 -223.52,419.04 12.66,131.12 87.75,337.7 295.8,377.55 29.7,111.22 89.59,220.76 186.06,328.26l2.41 103.85c-329.74,74.95 -613.13,239.52 -831.6,529.58 -318.47,326.99 -394.48,843.02 -384.77,1275.42 7.88,350.8 37.29,770.95 357.94,1069.99l192.15 105.23c70.71,193.7 136.44,303.1 211.45,302.85 29.05,-0.1 70.45,-48 46.07,-159.55 104.64,126.56 187.54,182.2 221.7,78.75 95.06,62.31 168.02,72.15 203.74,-6.48 88.47,-79.68 113.95,-193.91 87.46,-336.63 35.36,-18.82 49.74,-54.8 44.3,-106.99l345.2 76.01 49.69 -1924.6 206.65 -43.51 847.99 75.97c-313.77,-638.27 -920.46,-871.72 -920.46,-871.72l99.8 -43.73c6.86,-3.01 278.05,105.13 330.6,125.54 54.85,-140.87 77.49,-273.7 69.75,-398.94 148.85,-54.08 222.49,-242.27 231.79,-371.48 8.75,-121.42 -34.71,-314.25 -165.3,-379.45l0 -42.5c85,-48.39 132.79,-164.49 132.79,-305.02 0,-275.85 -170.37,-589.93 -531.98,-608.48z"/>
      <g>
       <path class="fil6" d="M3640.85 2357.49l33.38 545.2c-84.97,-82.08 -109.55,-193.42 -115.56,-261.47 -6.1,-69.12 4.64,-175.7 82.18,-283.74z"/>
       <path class="fil7" d="M3849.47 2346.37c-2.09,-44.4 -44.38,-61.21 -74.77,-61.21 -33.73,0 -70.11,24.23 -68.48,68.17l29.2 536.85c2.19,35.8 20.66,58.33 58.08,65.39 -9.01,-28.23 -2.2,-45.05 16.4,-55.9 16.65,-9.72 40.82,-11.73 55.82,17.14 10.77,-2.43 16.56,-10.75 17.13,-25.24l-33.38 -545.2z"/>
      </g>
      <g>
       <path class="fil6" d="M5259.3 2565.94l-64.19 542.44c89.48,-77.14 120.33,-186.91 130.17,-254.5 10.01,-68.68 5.32,-175.69 -65.98,-287.94z"/>
       <path class="fil7" d="M5135.44 3094.52l51.02 -494.05c-89.81,108.46 -20.57,341.34 -123.2,556.26 41.78,-3.8 65.16,-25.2 72.18,-62.22z"/>
      </g>
      <g>
       <path class="fil8" d="M4757.15 3130.59l-507.43 -17.42c11.62,39.99 30.15,76.52 56.75,109.02 122.11,-52.33 241.28,-36.46 357.4,50.57 48.91,-36.54 78.84,-84.64 93.28,-142.17z"/>
       <path class="fil8" d="M4635.21 3288.5c-92.65,-68.69 -195.45,-90.16 -313.56,-40.47 34.46,48.49 79.63,80.29 127.7,86.64 49.14,6.49 140.25,-10.33 185.87,-46.17z"/>
      </g>
      <path class="fil9" d="M4193.32 3319.78c-159.35,-47.31 -260.75,-155.82 -308.63,-325.7 46.11,-21.74 65.11,-60.86 61.99,-114.18l-39.06 -568.78 26.73 -39.07c283.23,39.02 533.05,-16.79 755.43,-150.47 -6.23,55.99 -60.87,130.74 -117.8,104.73 -31.73,-13.04 -56.87,19.35 -34.42,48.04 109.5,131.72 242.64,169.16 407.77,94.58 55.18,36.61 105.86,56.94 151.39,63.71l-30.53 503.84c-45.27,279.66 -198.14,482.63 -546.95,545.97 33.96,-37.2 36.36,-76.61 3.87,-118.44 179.78,-34.9 240.92,-126.3 264.78,-235.44 2.41,-13 0.19,-31.92 -13.58,-32.31l-539.25 -15.05c-16.23,-0.45 -25.03,9.61 -18.92,30.32 23.79,75.84 62.92,137.63 108.97,193.06l-48.41 -7.02c-33.38,-6.55 -61.13,0.95 -83.37,22.22z"/>
      <circle class="fil10" cx="4222.06" cy="2746.14" r="73.02"/>
      <circle class="fil10" cx="4998.13" cy="2840.72" r="73.02"/>
      <g>
       <circle class="fil3" cx="4913.29" cy="2675.22" r="45.9"/>
       <circle class="fil3" cx="4415.38" cy="2655.74" r="45.9"/>
       <path class="fil3" d="M4676.96 2553.7l0 0c-11.09,0 -19.53,12.43 -16.67,23.14 28.16,105.68 43.45,216.05 51.21,329.14 -31.08,40.99 -77.62,62.23 -142.08,60.57 -20.21,0 -21.79,32.66 -3.99,32.66 109.81,7.32 189.44,-57.62 187.86,-86.98 -6.21,-115.6 -21.01,-229.97 -53.2,-341.87 -3.06,-10.65 -12.04,-16.67 -23.14,-16.67z"/>
       <path class="fil3" d="M4506.09 2491.97c-88.24,-85.23 -196.41,-129.65 -325.44,-131.43 -36.05,0 -31.31,54.93 -3.48,54.93 117.82,-2.96 225.95,31.25 326.14,95.97l2.78 -19.47z"/>
       <path class="fil3" d="M4776.15 2493.12c77.83,-66.81 162.62,-88.26 273.2,-51.25 20.18,3.34 12.4,50.85 -17.71,43.53 -90.25,-34.26 -173.23,-19.5 -263.5,29.16l8 -21.45z"/>
      </g>
      <g>
       <path class="fil11" d="M4552.65 1530.22c-33.6,0.18 -67.02,1.9 -100.14,6.26 -25.03,3.29 -45.9,20.65 -45.9,45.9l0 0c0,25.24 20.96,49.81 45.9,45.9 33.38,-5.25 66.76,-7.51 100.14,-6.26 25.22,0.94 45.89,-20.65 45.89,-45.9l0 -0.01c0,-25.24 -20.65,-46.03 -45.89,-45.89z"/>
       <path class="fil11" d="M4327.42 1564.12c-35.75,9.58 -200.32,82.15 -224.15,105.11 -18.17,17.52 -28.56,33.04 -28.56,58.29l0 0c0,25.24 38.35,44.04 58.29,28.56 114.66,-89.05 222.75,-109.29 222.75,-109.29 25.25,-2.43 36.74,-34.4 28.56,-58.29l0 0c0,-2.17 -9.67,-37.04 -56.9,-24.39z"/>
       <path class="fil11" d="M5285.42 2060.88c-181.54,111.84 -320.8,-82.7 -554.93,-79.11 -152.11,2.34 -353.41,74.31 -620.3,233.5 173.61,14.83 372.64,-39.86 601.88,-177.09 45.79,-20.47 64.29,-4.56 60,41.74 -12.97,81.1 -55.97,151.6 -131.99,210.45 93.86,75.95 198.21,68 308.76,10.43 106.3,80.35 184.63,98.36 238.95,62.91 60.21,-39.29 109.02,-147.04 97.63,-302.82z"/>
      </g>
      <path class="fil12" d="M4586.23 3621.87c-168.31,98.05 -351.12,57.33 -544.07,-80.55l6.6 158.47c202.95,190.42 388.23,240.98 545.4,68.67l-7.92 -146.58z"/>
      <path class="fil9" d="M4563.77 3534.71c-202.37,36.35 -341.07,-8.27 -522.94,-122.81l2.04 48.78c201.59,149.65 360.25,210.23 519.58,103.09l1.32 -29.06z"/>
      <path class="fil9" d="M4065.93 3339.27l113.61 50.33 21.09 38.14c-58.69,-20.71 -101.5,-51.54 -134.7,-88.47z"/>
      <g>
       <path class="fil13" d="M3578.8 6034.41c-155.9,74.53 -264.37,161.44 -337.24,257.65 57.71,66.4 85.04,66.18 111.12,99.84 79.54,102.67 74.62,205.24 145.61,274.29 12.78,11.88 18.45,7.92 16.15,-13.82 -8.89,-91.54 16.44,-157.26 -95.3,-335.24 -8.64,-15.9 -0.16,-29.84 6.61,-36.05 7.43,-6.81 24.05,-14.31 37.36,-1.28 124.28,113.98 139.9,243.46 239.35,353.43 21.62,23.41 33.72,15.06 28.09,-15.87 -12.22,-51.38 -17.92,-102.83 -52.69,-163.95 -35.71,-62.79 -91.98,-133.94 -176.2,-218.18 -8.68,-12 0.2,-29.03 7.29,-35.71 7.33,-6.93 24.22,-15.6 36.47,-4.57 137.27,115.83 204.52,198.9 219.35,274.27 12.4,63.05 44.35,137.61 141.59,174.28 -92.42,-82.8 -87.9,-181.16 -138.74,-242.3 -96,-115.45 -180.86,-199.31 -188.83,-366.79z"/>
       <path class="fil13" d="M3579.12 6034.24l-0.33 0.16c7.97,167.47 92.83,251.33 188.83,366.79 50.85,61.15 46.32,159.5 138.74,242.3 1.45,0.55 2.91,1.09 4.39,1.62 4.82,1.85 9.07,2.73 12.64,2.73 14.23,0.02 17.57,-13.87 2.19,-35.76 -95.28,-135.31 2.41,-184.76 -236.99,-384.2 -22.09,-18.4 -46.98,-38.05 -75.22,-59.19 -13.78,-17.08 -7.54,-36.64 -1.05,-45.02 2.76,-3.56 7.41,-6.8 13.06,-8.85 9.08,-3.29 20.72,-3.51 31.21,2.96l283.23 225.83c68.62,40.57 9.97,236.45 49.39,236.45 19.14,0 51.33,-136.56 51.46,-192.49 -6.1,-71.42 -64.44,-149.37 -157.32,-231.63 -143.83,-108.71 -242.15,-145.32 -303.24,-122.07l-1 0.37z"/>
      </g>
      <path class="fil13" d="M3992.84 6172.78c47.15,20.73 75.42,46.19 66.93,80.84l-66.93 -80.84z"/>
      <g>
       <path class="fil12" d="M3149.64 5105.67c-114.92,-25.94 -221.02,-75.82 -317.78,-151.09 -12.74,346.02 1.19,635.49 56.76,856.26 57.56,228.67 168.25,365.26 286.27,485.42 52.56,-112.22 153.04,-202.33 291.37,-274.96 -274.19,-103.32 -336.14,-402.41 -339.19,-600 -0.91,-58.88 7.09,-179.78 22.57,-315.63z"/>
       <path class="fil14" d="M3416.63 5124.62c-93.61,6.21 -182.67,0.07 -266.98,-18.95 -15.48,135.85 -23.48,256.76 -22.57,315.63 3.05,197.59 65,496.68 339.19,600 27.61,-14.5 56.72,-28.31 87.27,-41.45 -43.51,-76.39 -130.54,-152.78 -130.54,-229.17l-6.37 -626.07z"/>
      </g>
      <g>
       <path class="fil12" d="M3175.83 4912.05c-111.52,-33.61 -215.33,-91.37 -313.53,-166.69l-17.38 88.32c85.71,90.28 191.58,149.06 316.33,178.31 4.46,-33.28 9.33,-66.79 14.58,-99.93z"/>
       <path class="fil14" d="M3421.41 4944.93c-86.09,2.3 -167.71,-9.41 -245.57,-32.89 -5.26,33.15 -10.12,66.65 -14.58,99.93 79.02,18.53 165.61,25.23 259.46,20.57l0.69 -87.62z"/>
      </g>
      <path class="fil14" d="M3193.12 4812.41c72.55,23.02 147.98,36.34 226.18,40.32 -0.32,-88.29 -2.43,-173.8 -8.93,-253.98 -90.9,-244.86 -166.9,-51.35 -217.24,213.66z"/>
      <path class="fil12" d="M5091.08 4033.66l123.44 -20.33c-168.11,-213.49 -357.41,-353.72 -566.31,-426.27l13.1 211.08c-10.48,11.54 -21.03,22.26 -31.64,32.28 154.47,32.74 310.73,101.54 461.41,203.23z"/>
      <path class="fil15" d="M3476.62 4615.07c26.47,336.95 -18.45,772.83 8.55,1130.11 24.74,66.33 68.73,131.36 122.22,195.77 6.61,7.96 13.36,15.9 20.24,23.84 82.49,6.36 169.38,47.91 259.3,113.62 80.62,13.81 147.68,43.45 206.04,83.22l93.03 -18.76 36.4 -971.55 37.5 -1000.78 831.18 -136.88c-150.68,-101.7 -306.94,-170.5 -461.41,-203.23 -150.35,141.95 -313.92,133.75 -486.39,24.33 -277.66,95.53 -518.16,341.3 -666.65,760.32z"/>
      <path class="fil12" d="M3362.54 4335.12c-5.16,-16.93 7.68,-28.62 16.06,-33.11 9.63,-5.15 28.42,-5.64 39.37,7.18 31.95,85.34 49.54,189.75 58.66,305.87 148.48,-419.02 388.99,-664.79 666.65,-760.32 -55.54,-35.23 -112,-80.95 -169.23,-135.54l-0.69 -198.89c-322.31,92.09 -588.81,238.6 -762.75,480.92 55.52,53.57 103.31,118.23 143.98,193.12 7.54,15.36 -5.9,28.54 -14.26,34.25 -8.9,6.08 -31.56,11.71 -39.03,-1.23 -35.53,-67.86 -77.34,-127.49 -127.93,-175.64 -137.14,169.6 -243.43,359.25 -288.86,588.47 96.04,80.5 199.05,137.43 308.62,172.21 50.34,-265.01 126.34,-458.52 217.24,-213.66 -7.9,-97.27 -22.28,-186.68 -47.82,-263.63z"/>
     </g>
    </g>
    <g>
     <g>
      <path class="fil3" d="M7082.08 5730.23l-776.29 201.13 10.26 216.76 148.19 0.19c194.09,141.68 402.14,160.5 627.13,30.2 75.82,64.36 141.36,36.18 167.22,7.69 38.26,-42.13 58.69,-86.89 -11.6,-172.6 41.34,-66.44 -36.21,-167.47 -164.92,-283.37z"/>
      <path class="fil16" d="M6540.86 6047.82c-3.16,18.42 -12.11,37.8 -27.65,58.29 109.45,83.43 223.61,98.79 315.17,92.62 103.31,-6.95 256.87,-50.06 259.7,-158.68l-24.92 -20.67c1.2,91.35 -140.99,126.02 -226.39,130.37 -83.68,4.26 -197.67,-11.43 -295.91,-101.92z"/>
      <path class="fil17" d="M6570.75 5926.57c71,103.95 187.34,128.87 259.4,223.45 -2.25,0.08 -4.52,0.16 -6.82,0.2 -82.18,1.91 -189.38,-16.68 -282.47,-102.41 0.97,-5.65 1.4,-11.21 1.3,-16.68 -0.48,-29.01 -15.56,-55.59 -41.7,-80.33l70.28 -24.23z"/>
      <path class="fil16" d="M6924.67 5904.44l-16.69 12.52c31.27,37.62 43.15,67.1 44.43,90.12 2.5,44.6 -34.77,64.9 -47.8,72.97 -16.95,10.5 -71.02,25.41 -99.95,-64.3 -1.75,-5.45 -3.42,-11.26 -4.98,-17.51 -55.44,-20.78 -101.71,-56.24 -141.7,-101.74l-86.06 29.67 -1.17 0.41c71,103.95 187.34,128.87 259.4,223.45 2.23,-0.08 4.44,-0.18 6.63,-0.29 85.4,-4.35 227.6,-39.02 226.39,-130.37l-21.14 -17.54 -117.36 -97.38z"/>
      <polygon class="fil13" points="7197.03,6049.89 7144.97,6059.88 7132.71,6120.01 7180.22,6158.84 7237.02,6115.96 "/>
      <path class="fil13" d="M7028.24 5775.37l-107.04 34.61c47.55,62.52 111.49,121.1 190.08,176.17 51.65,31.18 102.55,-3.27 85.76,-34.78 -40.51,-62.78 -99.72,-120.68 -168.8,-176z"/>
      <path class="fil13" d="M6716.76 5868.61c-0.75,0.28 1.07,0.98 1.61,1.47 20,18.22 40.91,35.45 62.27,51.74 48.04,31.19 89.02,-3.26 75.88,-34.77 -9.97,-18.83 -20.43,-37.21 -31.87,-55.22 -0.59,-0.94 -0.65,-3.22 -1.79,-2.8l-106.1 39.58z"/>
      <polygon class="fil13" points="6881.56,5972.61 6862.44,5985.65 6880.25,6027.38 6895.47,6017.81 "/>
      <path class="fil13" d="M6431.76 5976.52c71.94,43.8 62.58,83.74 0,119.96 0,-39.98 0,-79.97 0,-119.96z"/>
     </g>
     <g>
      <g>
       <path class="fil1" d="M7620.91 3408.08l-3450.04 746.65c-20.17,7.36 -34.59,20.47 -38.54,44.06l0.35 2365.95c0,20.06 22.38,35.25 42.34,44.11l94.45 47.15c25.85,12.59 64.54,8.6 100.24,-0.85l1549.21 -503.54 -23.65 597.52 -404.78 148.95c-17.38,7.91 -27.26,18.43 -29.18,31.75l0.65 150.16c0,9.63 119.26,89.37 178.89,134.06 14.86,9.43 32.73,9.88 52.99,3.08l1071.54 -389.95c37.61,-18.21 56.75,-49.01 60.36,-90.4l-1.19 -95.57c-2.64,-26.41 -13.15,-44.08 -29.7,-55.03l-174.95 -87.5 -170.34 60.26 -4.31 -578.41 1395.04 -453.43c36.58,-11.51 64.55,-54.32 64.55,-84.96l-1.74 -1948.98c0,-87.48 -176.55,-107.72 -282.2,-85.09z"/>
       <polygon class="fil18" points="5903.73,6801.7 5548.1,6926.86 5645.79,6977.23 5981.56,6853.6 "/>
       <polygon class="fil18" points="5508.42,6968.07 5511.47,7061.17 5601.53,7122.22 5610.68,7016.91 "/>
       <polygon class="fil18" points="6621.07,6552.92 6448.6,6610.92 6447.08,6693.33 6691.28,6597.18 "/>
       <polygon class="fil18" points="6376.09,4802.85 6125.17,4870.36 6075.55,6821.34 6380.37,6710.08 "/>
       <polygon class="fil18" points="6058.28,4889.53 5959.19,6754.08 6013.96,6800.15 "/>
       <polygon class="fil18" points="4264.18,4259.32 4193.78,4249.75 4194.65,6550.66 4264.19,6580.22 "/>
       <polygon class="fil18" points="7721.24,3456.11 7651.71,3452.63 4202.51,4195.84 4338.11,4212.36 "/>
      </g>
      <path class="fil19" d="M4326.35 6558.7l0 -2210.71c0,-12.8 10.48,-23.29 23.3,-23.29 12.81,0 23.29,10.49 23.29,23.29l0 2210.71c0,12.8 -10.48,23.29 -23.29,23.29 -12.82,0 -23.3,-10.49 -23.3,-23.29z"/>
      <path class="fil20" d="M7855.64 3546.45l0 1896.46c0,10.98 -10.48,19.97 -23.29,19.97 -12.82,0 -23.29,-9 -23.29,-19.97l0 -1896.46c0,-10.98 10.48,-19.97 23.29,-19.97 12.82,0 23.29,9 23.29,19.97z"/>
     </g>
    </g>
   </g>
  </g>
 </g>
</svg>
