<?xml version="1.0" encoding="UTF-8"?>
<!DOCTYPE svg PUBLIC "-//W3C//DTD SVG 1.1//EN" "http://www.w3.org/Graphics/SVG/1.1/DTD/svg11.dtd">
<!-- Creator: CorelDRAW 2020 (64 Bit) -->
<svg xmlns="http://www.w3.org/2000/svg" xml:space="preserve" width="20mm" height="15.9468mm" version="1.1" style="shape-rendering:geometricPrecision; text-rendering:geometricPrecision; image-rendering:optimizeQuality; fill-rule:evenodd; clip-rule:evenodd"
viewBox="0 0 255.12 203.42"
 xmlns:xlink="http://www.w3.org/1999/xlink"
 xmlns:xodm="http://www.corel.com/coreldraw/odm/2003">
 <defs>
  <style type="text/css">
   <![CDATA[
    .fil1 {fill:#FEFEFE}
    .fil0 {fill:#8012FA}
   ]]>
  </style>
 </defs>
 <g id="Camada_x0020_1">
  <metadata id="CorelCorpID_0Corel-Layer"/>
  <g id="_2099612182080">
   <path class="fil0" d="M52.13 0l150.73 0c13.08,0 23.77,10.7 23.77,23.77l0 21.98c2.58,24.44 9.02,48.13 28.49,49.4l0 3.56 0 5.88 0 3.57c-19.47,1.27 -25.91,24.96 -28.49,49.4l0 22.1c0,13.08 -10.7,23.77 -23.77,23.77l-150.73 0c-13.08,0 -23.77,-10.7 -23.77,-23.77l0 -23.28c-2.67,-24.02 -9.2,-46.97 -28.36,-48.22l0 -3.57 0 -5.88 0 -3.56c19.16,-1.24 25.69,-24.2 28.36,-48.22l0 -23.16c0,-13.08 10.7,-23.77 23.77,-23.77z"/>
   <path class="fil1" d="M88.18 155.94l48.93 0c26.97,0 33.9,-19.84 33.9,-29.77 0,-8.82 -4.57,-24.03 -24.74,-27.56 15.03,-4.75 19.29,-17.98 19.29,-25.29 0,-9.1 -5.51,-25.72 -31.67,-25.72l-45.71 0 0 50.26 0 2.51 0 55.57zm17.98 -14.3l27.6 0c15.21,0 19.12,-11.84 19.12,-17.75 0,-5.97 -3.33,-16.88 -19.12,-16.88l-27.6 0 0 34.64zm0 -48.2l24.73 0c13.63,0 17.13,-10.88 17.13,-16.32 0,-5.49 -2.98,-15.52 -17.13,-15.52l-24.73 0 0 31.84z"/>
  </g>
 </g>
</svg>
