<?xml version="1.0" encoding="UTF-8"?>
<!DOCTYPE svg PUBLIC "-//W3C//DTD SVG 1.1//EN" "http://www.w3.org/Graphics/SVG/1.1/DTD/svg11.dtd">
<!-- Creator: CorelDRAW 2020 (64 Bit) -->
<svg xmlns="http://www.w3.org/2000/svg" xml:space="preserve" width="11.0184mm" height="13.9069mm" version="1.1" style="shape-rendering:geometricPrecision; text-rendering:geometricPrecision; image-rendering:optimizeQuality; fill-rule:evenodd; clip-rule:evenodd"
viewBox="0 0 67.61 85.33"
 xmlns:xlink="http://www.w3.org/1999/xlink"
 xmlns:xodm="http://www.corel.com/coreldraw/odm/2003">
 <defs>
  <style type="text/css">
   <![CDATA[
    .fil0 {fill:#001331}
    .fil6 {fill:#4E5F71}
    .fil1 {fill:#C99FCF}
    .fil2 {fill:#E7D4E8}
    .fil5 {fill:#EB8C7A}
    .fil3 {fill:#FF8B92}
    .fil4 {fill:#FFCADE}
   ]]>
  </style>
 </defs>
 <g id="Camada_x0020_1">
  <metadata id="CorelCorpID_0Corel-Layer"/>
  <g id="_2182938062320">
   <path class="fil0" d="M47.45 1.31c-20.17,-4.6 -35.45,2.65 -39.42,26.06 -6.42,2.74 -8.43,10.15 -7.97,14.94 0.45,4.67 3.13,12.04 10.54,13.46 1.06,3.96 3.19,7.87 6.63,11.7l0.09 3.7c-36.68,13.92 63.34,22.27 24.15,2.29 -0,-0 -0,-0 -0,-0l0 -0 3.56 -1.56c3.79,-2.33 7.22,-5.11 9.92,-9.28 1.35,0.03 3.17,0.02 4.35,-0.47 5.31,-1.93 7.93,-8.64 8.26,-13.24 0.31,-4.33 -1.24,-11.2 -5.89,-13.53l0 -1.52c3.03,-1.72 4.73,-5.86 4.73,-10.87 0,-9.83 -6.07,-21.03 -18.96,-21.69z"/>
   <path class="fil1" d="M5.26 31.97l1.19 19.44c-3.03,-2.93 -3.91,-6.9 -4.12,-9.32 -0.22,-2.46 0.17,-6.26 2.93,-10.11z"/>
   <path class="fil2" d="M12.7 31.57c-0.07,-1.58 -1.58,-2.18 -2.67,-2.18 -1.2,0 -2.5,0.86 -2.44,2.43l1.04 19.14c0.08,1.28 0.74,2.08 2.07,2.33 -0.32,-1.01 -0.08,-1.61 0.58,-1.99 0.59,-0.35 1.45,-0.42 1.99,0.61 0.38,-0.09 0.59,-0.38 0.61,-0.9l-1.19 -19.43z"/>
   <path class="fil1" d="M62.96 39.4l-2.29 19.34c3.19,-2.75 4.29,-6.66 4.64,-9.07 0.36,-2.45 0.19,-6.26 -2.35,-10.26z"/>
   <path class="fil2" d="M58.54 58.24l1.82 -17.61c-3.2,3.87 -0.73,12.17 -4.39,19.83 1.49,-0.14 2.32,-0.9 2.57,-2.22z"/>
   <path class="fil3" d="M45.06 59.53l-18.09 -0.62c0.41,1.43 1.08,2.73 2.02,3.89 4.35,-1.87 8.6,-1.3 12.74,1.8 1.74,-1.3 2.81,-3.02 3.33,-5.07z"/>
   <path class="fil3" d="M40.71 65.16c-3.3,-2.45 -6.97,-3.21 -11.18,-1.44 1.23,1.73 2.84,2.86 4.55,3.09 1.75,0.23 5,-0.37 6.63,-1.65z"/>
   <path class="fil4" d="M24.96 66.27c-5.68,-1.69 -9.3,-5.56 -11,-11.61 1.64,-0.77 2.32,-2.17 2.21,-4.07l-1.39 -20.28 0.95 -1.39c10.1,1.39 19,-0.6 26.93,-5.36 -0.22,2 -2.17,4.66 -4.2,3.73 -1.13,-0.47 -2.03,0.69 -1.23,1.71 3.9,4.7 8.65,6.03 14.54,3.37 1.97,1.31 3.77,2.03 5.4,2.27l-1.09 17.96c-1.61,9.97 -7.06,17.21 -19.5,19.46 1.21,-1.33 1.3,-2.73 0.14,-4.22 6.41,-1.24 8.59,-4.5 9.44,-8.39 0.09,-0.46 0.01,-1.14 -0.48,-1.15l-19.22 -0.54c-0.58,-0.02 -0.89,0.34 -0.67,1.08 0.85,2.7 2.24,4.91 3.88,6.88l-1.73 -0.25c-1.19,-0.23 -2.18,0.03 -2.97,0.79z"/>
   <circle class="fil5" cx="25.98" cy="45.82" r="2.6"/>
   <circle class="fil5" cx="53.65" cy="49.2" r="2.6"/>
   <circle class="fil0" cx="50.63" cy="43.3" r="1.64"/>
   <circle class="fil0" cx="32.88" cy="42.6" r="1.64"/>
   <path class="fil0" d="M42.2 38.96l0 0c-0.4,0 -0.7,0.44 -0.59,0.82 1,3.77 1.55,7.7 1.83,11.73 -1.11,1.46 -2.77,2.22 -5.07,2.16 -0.72,0 -0.78,1.16 -0.14,1.16 3.91,0.26 6.75,-2.05 6.7,-3.1 -0.22,-4.12 -0.75,-8.2 -1.9,-12.19 -0.11,-0.38 -0.43,-0.59 -0.82,-0.59z"/>
   <path class="fil0" d="M36.11 36.76c-3.15,-3.04 -7,-4.62 -11.6,-4.69 -1.28,0 -1.12,1.96 -0.12,1.96 4.2,-0.11 8.05,1.11 11.63,3.42l0.1 -0.69z"/>
   <path class="fil0" d="M45.74 36.81c2.77,-2.38 5.8,-3.15 9.74,-1.83 0.72,0.12 0.44,1.81 -0.63,1.55 -3.22,-1.22 -6.18,-0.7 -9.39,1.04l0.29 -0.76z"/>
   <path class="fil6" d="M37.77 2.48c-1.2,0.01 -2.39,0.07 -3.57,0.22 -0.89,0.12 -1.64,0.74 -1.64,1.64l0 0c0,0.9 0.75,1.78 1.64,1.64 1.19,-0.19 2.38,-0.27 3.57,-0.22 0.9,0.03 1.64,-0.74 1.64,-1.64l0 0c0,-0.9 -0.74,-1.64 -1.64,-1.64z"/>
   <path class="fil6" d="M29.74 3.69c-1.27,0.34 -7.14,2.93 -7.99,3.75 -0.65,0.62 -1.02,1.18 -1.02,2.08l0 0c-0,0.9 1.37,1.57 2.08,1.02 4.09,-3.17 7.94,-3.9 7.94,-3.9 0.9,-0.09 1.31,-1.23 1.02,-2.08l0 0c0,-0.08 -0.34,-1.32 -2.03,-0.87z"/>
   <path class="fil6" d="M63.89 21.4c-6.47,3.99 -11.44,-2.95 -19.78,-2.82 -5.42,0.08 -12.6,2.65 -22.11,8.32 6.19,0.53 13.28,-1.42 21.46,-6.31 1.63,-0.73 2.29,-0.16 2.14,1.49 -0.46,2.89 -1.99,5.4 -4.71,7.5 3.35,2.71 7.07,2.42 11.01,0.37 3.79,2.86 6.58,3.51 8.52,2.24 2.15,-1.4 3.89,-5.24 3.48,-10.79z"/>
   <path class="fil4" d="M38.17 73.94c-7.21,1.3 -12.16,-0.29 -18.64,-4.38l0.07 1.74c7.19,5.33 12.84,7.49 18.52,3.67l0.05 -1.04z"/>
   <path class="fil4" d="M20.42 66.97l4.05 1.79 0.75 1.36c-2.09,-0.74 -3.62,-1.84 -4.8,-3.15z"/>
  </g>
 </g>
</svg>
