<?xml version="1.0" encoding="UTF-8"?>
<!DOCTYPE svg PUBLIC "-//W3C//DTD SVG 1.1//EN" "http://www.w3.org/Graphics/SVG/1.1/DTD/svg11.dtd">
<!-- Creator: CorelDRAW 2020 (64 Bit) -->
<svg xmlns="http://www.w3.org/2000/svg" xml:space="preserve" width="27.0294mm" height="27.0296mm" version="1.1" style="shape-rendering:geometricPrecision; text-rendering:geometricPrecision; image-rendering:optimizeQuality; fill-rule:evenodd; clip-rule:evenodd"
viewBox="0 0 487.85 487.85"
 xmlns:xlink="http://www.w3.org/1999/xlink"
 xmlns:xodm="http://www.corel.com/coreldraw/odm/2003">
 <defs>
  <style type="text/css">
   <![CDATA[
    .fil0 {fill:#F05033}
   ]]>
  </style>
 </defs>
 <g id="Camada_x0020_1">
  <metadata id="CorelCorpID_0Corel-Layer"/>
  <path class="fil0" d="M7.95 224.65l148.52 -148.52 54.58 54.59c-5.65,13.38 -3.02,29.43 7.88,40.34 3.38,3.38 7.25,5.96 11.38,7.75l0 135.17c-4.24,1.79 -8.2,4.41 -11.66,7.87 -14.37,14.37 -14.37,37.66 0,52.03 14.37,14.37 37.66,14.37 52.03,0 14.37,-14.37 14.37,-37.66 0,-52.03 -3.3,-3.3 -7.07,-5.84 -11.1,-7.62l0 -134.96 52.73 52.73c-5.65,13.38 -3.02,29.43 7.88,40.34 14.37,14.37 37.66,14.37 52.03,0 14.37,-14.37 14.37,-37.66 0,-52.03 -10.47,-10.47 -25.69,-13.31 -38.73,-8.52l-54.02 -54.02c4.79,-13.04 1.95,-28.26 -8.52,-38.73 -10.47,-10.47 -25.69,-13.31 -38.73,-8.52l-55.07 -55.07 47.48 -47.48c10.6,-10.6 27.95,-10.6 38.55,0l216.7 216.69c10.6,10.6 10.6,27.95 0,38.55l-216.7 216.7c-10.6,10.6 -27.95,10.6 -38.55,-0l-216.69 -216.69c-10.6,-10.6 -10.6,-27.95 -0,-38.55z"/>
 </g>
</svg>
