<?xml version="1.0" encoding="UTF-8"?>
<!DOCTYPE svg PUBLIC "-//W3C//DTD SVG 1.1//EN" "http://www.w3.org/Graphics/SVG/1.1/DTD/svg11.dtd">
<!-- Creator: CorelDRAW 2020 (64 Bit) -->
<svg xmlns="http://www.w3.org/2000/svg" xml:space="preserve" width="20mm" height="19.5952mm" version="1.1" style="shape-rendering:geometricPrecision; text-rendering:geometricPrecision; image-rendering:optimizeQuality; fill-rule:evenodd; clip-rule:evenodd"
viewBox="0 0 255.12 249.96"
 xmlns:xlink="http://www.w3.org/1999/xlink"
 xmlns:xodm="http://www.corel.com/coreldraw/odm/2003">
 <defs>
  <style type="text/css">
   <![CDATA[
    .fil0 {fill:#373435}
   ]]>
  </style>
 </defs>
 <g id="Camada_x0020_1">
  <metadata id="CorelCorpID_0Corel-Layer"/>
  <path class="fil0" d="M127.56 0c70.45,0 127.56,57.11 127.56,127.56 0,57.66 -38.25,106.37 -90.76,122.16 -2.3,-0.56 -4.08,-1.87 -4.08,-5.81 -2.75,-19.75 5.67,-43.14 -8.25,-59.26 20.49,-1.25 57.73,-14.11 57.73,-60.96 0,-11.84 -5.51,-30.8 -12.62,-37.02 2.88,-12.24 2.46,-23.65 -1.83,-34.1 -9.64,-0.86 -21.53,3.74 -35.3,12.93 -21.34,-5.35 -42.42,-5.41 -63.22,0.18 -13.94,-10.1 -25.23,-13.76 -34.86,-13.44 -4.8,9.36 -5.4,20.73 -1.95,34.03 -7.66,11.09 -12.75,17.82 -12.75,36.48 0,15.24 -0.28,54.44 57.19,61.87 -4.11,5.11 -6.14,10.93 -7.05,17.13 0,0 0,0.01 -0,0.01 -5.89,2 -7.76,3.16 -14.53,3.16 -22.53,0 -21.61,-26.97 -41.94,-26.97 -4.57,0 -6.09,0.81 -6.09,2.24 0,4.89 13.58,5.62 19,24.3 3.75,12.93 22.3,16.98 28.85,16.94 13.62,-0.08 14.19,-2.82 14.25,-1.53 0.37,8.28 1.04,16.66 0.07,24.48 0,3.26 -2.51,4.57 -5.41,5.57 -52.91,-15.54 -91.55,-64.46 -91.55,-122.4 0,-70.45 57.11,-127.56 127.56,-127.56z"/>
 </g>
</svg>
