<?xml version="1.0" encoding="UTF-8"?>
<!DOCTYPE svg PUBLIC "-//W3C//DTD SVG 1.1//EN" "http://www.w3.org/Graphics/SVG/1.1/DTD/svg11.dtd">
<!-- Creator: CorelDRAW 2020 (64 Bit) -->
<svg xmlns="http://www.w3.org/2000/svg" xml:space="preserve" width="20mm" height="19.5952mm" version="1.1" style="shape-rendering:geometricPrecision; text-rendering:geometricPrecision; image-rendering:optimizeQuality; fill-rule:evenodd; clip-rule:evenodd"
viewBox="0 0 383.34 375.58"
 xmlns:xlink="http://www.w3.org/1999/xlink"
 xmlns:xodm="http://www.corel.com/coreldraw/odm/2003">
 <defs>
  <style type="text/css">
   <![CDATA[
    .fil0 {fill:#FEFEFE}
   ]]>
  </style>
 </defs>
 <g id="Camada_x0020_1">
  <metadata id="CorelCorpID_0Corel-Layer"/>
  <path class="fil0" d="M191.67 0c105.86,0 191.67,85.81 191.67,191.67 0,86.63 -57.48,159.83 -136.38,183.56 -3.45,-0.84 -6.14,-2.8 -6.14,-8.73 -4.13,-29.68 8.52,-64.83 -12.4,-89.05 30.78,-1.87 86.75,-21.21 86.75,-91.6 0,-17.78 -8.28,-46.28 -18.96,-55.62 4.33,-18.39 3.7,-35.54 -2.75,-51.23 -14.49,-1.29 -32.35,5.62 -53.04,19.42 -32.06,-8.04 -63.74,-8.13 -94.99,0.28 -20.95,-15.17 -37.9,-20.67 -52.39,-20.2 -7.22,14.06 -8.12,31.14 -2.93,51.14 -11.51,16.66 -19.16,26.78 -19.16,54.81 0,22.9 -0.42,81.8 85.93,92.96 -6.18,7.67 -9.22,16.43 -10.59,25.74 0,0.01 0,0.02 -0,0.02 -8.86,3 -11.66,4.74 -21.84,4.74 -33.86,0 -32.47,-40.52 -63.01,-40.52 -6.87,0 -9.15,1.22 -9.15,3.37 0,7.34 20.41,8.45 28.55,36.51 5.64,19.43 33.5,25.51 43.35,25.45 20.47,-0.12 21.32,-4.23 21.41,-2.29 0.56,12.44 1.56,25.04 0.1,36.79 0,4.89 -3.77,6.86 -8.13,8.37 -79.5,-23.36 -137.55,-96.85 -137.55,-183.91 0,-105.86 85.81,-191.67 191.67,-191.67z"/>
 </g>
</svg>
