<?xml version="1.0" encoding="UTF-8"?>
<!DOCTYPE svg PUBLIC "-//W3C//DTD SVG 1.1//EN" "http://www.w3.org/Graphics/SVG/1.1/DTD/svg11.dtd">
<!-- Creator: CorelDRAW 2020 (64 Bit) -->
<svg xmlns="http://www.w3.org/2000/svg" xml:space="preserve" width="20mm" height="19.5952mm" version="1.1" style="shape-rendering:geometricPrecision; text-rendering:geometricPrecision; image-rendering:optimizeQuality; fill-rule:evenodd; clip-rule:evenodd"
viewBox="0 0 1325.51 1298.68"
 xmlns:xlink="http://www.w3.org/1999/xlink"
 xmlns:xodm="http://www.corel.com/coreldraw/odm/2003">
 <defs>
  <style type="text/css">
   <![CDATA[
    .fil0 {fill:black}
   ]]>
  </style>
 </defs>
 <g id="Camada_x0020_1">
  <metadata id="CorelCorpID_0Corel-Layer"/>
  <path class="fil0" d="M662.76 0c366.03,0 662.76,296.72 662.76,662.76 0,299.56 -198.75,552.65 -471.58,634.72 -11.94,-2.9 -21.22,-9.7 -21.22,-30.18 -14.29,-102.63 29.47,-224.15 -42.86,-307.91 106.43,-6.48 299.95,-73.33 299.95,-316.74 0,-61.49 -28.63,-160.02 -65.57,-192.33 14.96,-63.59 12.8,-122.89 -9.52,-177.15 -50.09,-4.47 -111.86,19.42 -183.4,67.16 -110.87,-27.81 -220.39,-28.11 -328.46,0.96 -72.45,-52.46 -131.06,-71.48 -181.14,-69.85 -24.95,48.63 -28.07,107.69 -10.15,176.82 -39.81,57.59 -66.26,92.59 -66.26,189.54 0,79.17 -1.44,282.83 297.12,321.45 -21.36,26.54 -31.88,56.81 -36.6,89.01 0,0.02 0,0.06 -0.01,0.07 -30.62,10.37 -40.3,16.4 -75.51,16.4 -117.07,0 -112.29,-140.1 -217.89,-140.1 -23.76,0 -31.63,4.23 -31.63,11.64 0,25.4 70.58,29.21 98.73,126.23 19.5,67.2 115.85,88.2 149.9,87.99 70.78,-0.43 73.73,-14.64 74.02,-7.93 1.93,43.03 5.39,86.57 0.34,127.21 0,16.92 -13.03,23.73 -28.13,28.94 -274.9,-80.76 -475.63,-334.88 -475.63,-635.93 0,-366.03 296.72,-662.76 662.76,-662.76z"/>
 </g>
</svg>
