<?xml version="1.0" encoding="UTF-8"?>
<!DOCTYPE svg PUBLIC "-//W3C//DTD SVG 1.1//EN" "http://www.w3.org/Graphics/SVG/1.1/DTD/svg11.dtd">
<!-- Creator: CorelDRAW 2020 (64 Bit) -->
<svg xmlns="http://www.w3.org/2000/svg" xml:space="preserve" width="20mm" height="20mm" version="1.1" style="shape-rendering:geometricPrecision; text-rendering:geometricPrecision; image-rendering:optimizeQuality; fill-rule:evenodd; clip-rule:evenodd"
viewBox="0 0 773.57 773.57"
 xmlns:xlink="http://www.w3.org/1999/xlink"
 xmlns:xodm="http://www.corel.com/coreldraw/odm/2003">
 <defs>
  <style type="text/css">
   <![CDATA[
    .fil0 {fill:#FEFEFE}
   ]]>
  </style>
 </defs>
 <g id="Camada_x0020_1">
  <metadata id="CorelCorpID_0Corel-Layer"/>
  <path class="fil0" d="M170.78 0l432.02 0c93.93,0 170.77,76.85 170.77,170.77l0 432.03c0,93.92 -76.85,170.77 -170.77,170.77l-432.02 0c-93.93,0 -170.77,-76.85 -170.77,-170.77l0 -432.03c0,-93.92 76.85,-170.77 170.77,-170.77zm456.51 450l0 176.96 -102.26 0 0 -176.96c0,-62.5 -32.15,-72.35 -50.88,-72.35 -45.92,0 -62.94,45.56 -62.94,65.24l0 184.07 -102.26 0 0 -329.91 102.26 0 0 45.35c18.8,-35.09 63.39,-54.1 98.47,-53.64 85,1.13 117.62,58.05 117.62,161.23zm-482.88 -152.95l102.26 0 0 329.91 -102.26 0 0 -329.91zm50.71 -161.63c33.02,0 59.8,26.78 59.8,59.8 0,33.03 -26.78,59.8 -59.8,59.8 -33.03,0 -59.8,-26.77 -59.8,-59.8 0,-33.02 26.77,-59.8 59.8,-59.8z"/>
 </g>
</svg>
