<?xml version="1.0" encoding="UTF-8"?>
<!DOCTYPE svg PUBLIC "-//W3C//DTD SVG 1.1//EN" "http://www.w3.org/Graphics/SVG/1.1/DTD/svg11.dtd">
<!-- Creator: CorelDRAW 2020 (64 Bit) -->
<svg xmlns="http://www.w3.org/2000/svg" xml:space="preserve" width="20mm" height="20mm" version="1.1" style="shape-rendering:geometricPrecision; text-rendering:geometricPrecision; image-rendering:optimizeQuality; fill-rule:evenodd; clip-rule:evenodd"
viewBox="0 0 255.12 255.12"
 xmlns:xlink="http://www.w3.org/1999/xlink"
 xmlns:xodm="http://www.corel.com/coreldraw/odm/2003">
 <defs>
  <style type="text/css">
   <![CDATA[
    .fil0 {fill:#0A66C2}
   ]]>
  </style>
 </defs>
 <g id="Camada_x0020_1">
  <metadata id="CorelCorpID_0Corel-Layer"/>
  <path class="fil0" d="M56.32 0l142.48 0c30.98,0 56.32,25.35 56.32,56.32l0 142.48c0,30.98 -25.34,56.32 -56.32,56.32l-142.48 0c-30.98,0 -56.32,-25.34 -56.32,-56.32l0 -142.48c0,-30.97 25.34,-56.32 56.32,-56.32zm150.55 148.41l0 58.36 -33.73 0 0 -58.36c0,-20.61 -10.6,-23.86 -16.78,-23.86 -15.14,0 -20.76,15.03 -20.76,21.51l0 60.71 -33.73 0 0 -108.8 33.73 0 0 14.96c6.2,-11.57 20.9,-17.84 32.47,-17.69 28.03,0.37 38.79,19.14 38.79,53.17zm-159.25 -50.44l33.73 0 0 108.8 -33.73 0 0 -108.8zm16.72 -53.3c10.89,0 19.72,8.83 19.72,19.72 0,10.89 -8.83,19.72 -19.72,19.72 -10.89,0 -19.72,-8.83 -19.72,-19.72 0,-10.89 8.83,-19.72 19.72,-19.72z"/>
 </g>
</svg>
