<?xml version="1.0" encoding="UTF-8"?>
<!DOCTYPE svg PUBLIC "-//W3C//DTD SVG 1.1//EN" "http://www.w3.org/Graphics/SVG/1.1/DTD/svg11.dtd">
<!-- Creator: CorelDRAW 2020 (64 Bit) -->
<svg xmlns="http://www.w3.org/2000/svg" xml:space="preserve" width="57.8271mm" height="50.1294mm" version="1.1" style="shape-rendering:geometricPrecision; text-rendering:geometricPrecision; image-rendering:optimizeQuality; fill-rule:evenodd; clip-rule:evenodd"
viewBox="0 0 1800.17 1560.54"
 xmlns:xlink="http://www.w3.org/1999/xlink"
 xmlns:xodm="http://www.corel.com/coreldraw/odm/2003">
 <defs>
  <style type="text/css">
   <![CDATA[
    .str0 {stroke:black;stroke-width:16.47;stroke-miterlimit:22.9256}
    .str3 {stroke:#CD6799;stroke-width:16.47;stroke-miterlimit:22.9256}
    .str2 {stroke:black;stroke-width:16.47;stroke-linejoin:round;stroke-miterlimit:22.9256}
    .str1 {stroke:black;stroke-width:16.47;stroke-linejoin:bevel;stroke-miterlimit:22.9256}
    .fil2 {fill:none}
    .fil1 {fill:#FEFEFE}
    .fil15 {fill:#FEFEFE}
    .fil0 {fill:#96989A}
    .fil16 {fill:#373435}
    .fil18 {fill:black}
    .fil5 {fill:#0061A3}
    .fil10 {fill:#0170BA}
    .fil20 {fill:#0A66C2}
    .fil11 {fill:#29A9DF}
    .fil19 {fill:#3178C6}
    .fil14 {fill:#8012FA}
    .fil21 {fill:#CD6799}
    .fil12 {fill:#CFCFCF}
    .fil4 {fill:#CFCFCF}
    .fil7 {fill:#E44D26}
    .fil9 {fill:#EBEBEB}
    .fil3 {fill:#EBEBEB}
    .fil13 {fill:#F05033}
    .fil8 {fill:#F16529}
    .fil17 {fill:#F7DF1E}
    .fil6 {fill:#FFC200}
   ]]>
  </style>
 </defs>
 <g id="Camada_x0020_1">
  <metadata id="CorelCorpID_0Corel-Layer"/>
  <g id="_3244248394672">
   <path class="fil0 str0" d="M274.48 8.24l1240.88 0c35.45,0 64.45,29.02 64.45,64.44l0 1022.44 -1369.75 0 0 -1022.44c0,-35.45 28.98,-64.44 64.43,-64.44z"/>
   <path class="fil1 str0" d="M275.26 44.91l1239.3 0c16.42,0 29.85,13.35 29.85,29.6l0 984.12 -1298.99 0 0 -984.12c0,-16.27 13.42,-29.6 29.83,-29.6z"/>
   <path class="fil0 str0" d="M1579.8 1096.1l205.86 382.6c15.21,28.25 5.43,73.6 -58.39,73.6l-1656.03 0c-52.49,0 -73.1,-45.05 -58.39,-73.6l197.19 -382.6 1369.75 0z"/>
   <line class="fil2 str0" x1="9.21" y1="1492.23" x2="1790.06" y2= "1492.23" />
   <polygon class="fil3 str1" points="290.79,1160.91 1507.27,1160.91 1562.42,1289.44 235.89,1289.44 "/>
   <polygon class="fil4 str0" points="290.79,1160.91 1507.27,1160.91 1534.84,1225.17 263.35,1225.17 "/>
   <polygon class="fil5 str0" points="411.61,1160.91 537.53,1160.91 515.06,1225.17 389.28,1225.17 "/>
   <line class="fil2 str0" x1="655.62" y1="1161.67" x2="641.66" y2= "1224.41" />
   <line class="fil2 str0" x1="776.55" y1="1161.67" x2="771.66" y2= "1224.41" />
   <line class="fil2 str0" x1="899.1" y1="1160.9" x2="899.1" y2= "1225.18" />
   <line class="fil2 str0" x1="1021.92" y1="1161.67" x2="1026.81" y2= "1224.41" />
   <line class="fil2 str0" x1="1139.73" y1="1161.67" x2="1153.69" y2= "1224.41" />
   <polygon class="fil6 str0" points="1385.93,1160.91 1260,1160.91 1282.47,1225.17 1408.26,1225.17 "/>
   <polygon class="fil5 str0" points="263.15,1225.17 414.1,1225.17 386.85,1289.44 235.89,1289.44 "/>
   <polygon class="fil6 str0" points="414.39,1225.17 535.3,1225.17 518.92,1289.44 387.13,1289.44 "/>
   <polygon class="fil5 str0" points="534.87,1225.17 655.78,1225.17 644.52,1289.44 519.2,1289.44 "/>
   <polygon class="fil6 str0" points="1535.16,1225.17 1384.2,1225.17 1411.46,1289.44 1562.42,1289.44 "/>
   <line class="fil2 str0" x1="776.67" y1="1225.16" x2="771.32" y2= "1289.44" />
   <line class="fil2 str0" x1="1020.36" y1="1225.16" x2="1025.71" y2= "1289.44" />
   <line class="fil2 str0" x1="1142.36" y1="1225.42" x2="1152.05" y2= "1289.19" />
   <line class="fil2 str0" x1="1263.68" y1="1224.53" x2="1279.59" y2= "1287.04" />
   <polygon class="fil5 str2" points="647.2,1414.51 1151.63,1414.51 1132.4,1289.44 663.45,1289.44 "/>
   <g>
    <polygon class="fil7" points="314.34,130.35 536.35,130.35 515.91,356.52 424.95,381.67 334.42,356.34 "/>
    <polygon class="fil8" points="424.98,148.8 516.05,148.8 498.4,341.96 424.98,363.03 "/>
    <polygon class="fil9" points="388.04,233.11 388.63,233.11 461.77,233.11 489.26,233.11 489.26,233.11 489.26,233.11 481.61,318.04 425.09,333.89 368.19,317.86 364.29,274.51 392.15,274.45 394.37,296.96 425.51,305.32 455.65,297.14 458.93,260.77 390.22,260.62 381.4,260.62 362.79,260.62 362.04,260.62 355.42,177 355.5,177 383.6,177 493.81,177 491.74,204.52 385.95,204.52 385.78,204.52 "/>
   </g>
   <g>
    <polygon class="fil10" points="604.75,130.35 826.76,130.35 806.31,356.52 715.36,381.66 624.83,356.34 "/>
    <polygon class="fil11" points="715.38,148.79 806.46,148.79 788.81,341.96 715.38,363.03 "/>
    <polygon class="fil12" points="725.58,233.11 755.07,233.11 784.71,233.11 784.71,233.11 784.71,233.11 776.46,318.04 715.54,333.89 654.19,317.86 649.99,274.51 680.03,274.45 682.41,296.96 715.99,305.32 748.48,297.14 752.01,260.77 677.94,260.62 668.43,260.62 648.38,260.62 647.57,260.62 645.15,232.31 715.38,200.9 642.49,201.15 640.43,177 640.52,177 670.8,177 789.62,177 787.38,204.52 "/>
   </g>
   <path class="fil13" d="M898.36 563.52l76.51 -76.51 28.12 28.12c-2.91,6.9 -1.56,15.16 4.06,20.78 1.74,1.74 3.74,3.07 5.86,3.99l0 69.64c-2.18,0.92 -4.22,2.27 -6.01,4.05 -7.4,7.4 -7.4,19.4 0,26.81 7.4,7.4 19.4,7.4 26.81,0 7.4,-7.4 7.4,-19.4 0,-26.81 -1.7,-1.7 -3.65,-3.01 -5.72,-3.93l0 -69.52 27.16 27.16c-2.91,6.89 -1.56,15.16 4.06,20.78 7.4,7.4 19.4,7.4 26.8,0 7.4,-7.4 7.4,-19.4 0,-26.8 -5.39,-5.39 -13.23,-6.86 -19.95,-4.39l-27.83 -27.83c2.47,-6.72 1.01,-14.56 -4.39,-19.95 -5.39,-5.39 -13.23,-6.85 -19.95,-4.39l-28.37 -28.37 24.46 -24.46c5.46,-5.46 14.4,-5.46 19.86,0l111.63 111.63c5.46,5.46 5.46,14.4 0,19.86l-111.63 111.63c-5.46,5.46 -14.4,5.46 -19.86,-0l-111.63 -111.63c-5.46,-5.46 -5.46,-14.4 -0,-19.86z"/>
   <g>
    <path class="fil14" d="M926.73 130.35l186.21 0c16.16,0 29.37,13.22 29.37,29.37l0 27.15c3.19,30.2 11.14,59.46 35.2,61.03l0 4.4 0 7.26 0 4.4c-24.05,1.56 -32,30.83 -35.2,61.03l0 27.3c0,16.15 -13.21,29.37 -29.37,29.37l-186.21 0c-16.15,0 -29.37,-13.22 -29.37,-29.37l0 -28.75c-3.29,-29.67 -11.37,-58.03 -35.04,-59.57l0 -4.4 0 -7.26 0 -4.4c23.67,-1.54 31.75,-29.9 35.04,-59.57l0 -28.61c0,-16.15 13.22,-29.37 29.37,-29.37z"/>
    <path class="fil15" d="M971.27 323.01l60.46 0c33.32,0 41.88,-24.51 41.88,-36.77 0,-10.89 -5.64,-29.69 -30.57,-34.05 18.57,-5.87 23.83,-22.21 23.83,-31.24 0,-11.25 -6.8,-31.78 -39.12,-31.78l-56.48 0 0 62.1 0 3.09 0 68.65zm22.22 -17.66l34.1 0c18.8,0 23.62,-14.62 23.62,-21.93 0,-7.38 -4.11,-20.86 -23.62,-20.86l-34.1 0 0 42.79zm0 -59.55l30.55 0c16.84,0 21.16,-13.44 21.16,-20.16 0,-6.79 -3.68,-19.17 -21.16,-19.17l-30.55 0 0 39.33z"/>
   </g>
   <path class="fil16" d="M1347.25 447.79c70.83,0 128.25,57.42 128.25,128.25 0,57.97 -38.46,106.94 -91.26,122.83 -2.31,-0.56 -4.11,-1.88 -4.11,-5.84 -2.76,-19.86 5.7,-43.38 -8.29,-59.59 20.6,-1.25 58.05,-14.19 58.05,-61.3 0,-11.9 -5.54,-30.97 -12.69,-37.22 2.9,-12.31 2.48,-23.78 -1.84,-34.28 -9.69,-0.87 -21.64,3.76 -35.49,12.99 -21.45,-5.38 -42.65,-5.44 -63.56,0.19 -14.02,-10.15 -25.36,-13.83 -35.05,-13.52 -4.83,9.41 -5.43,20.84 -1.96,34.22 -7.7,11.14 -12.82,17.92 -12.82,36.68 0,15.32 -0.28,54.73 57.5,62.2 -4.14,5.14 -6.17,11 -7.09,17.22 0,0 0,0.01 -0,0.01 -5.92,2.01 -7.8,3.18 -14.61,3.18 -22.66,0 -21.73,-27.11 -42.17,-27.11 -4.6,0 -6.12,0.82 -6.12,2.25 0,4.92 13.66,5.65 19.11,24.43 3.77,13 22.42,17.07 29.01,17.03 13.69,-0.08 14.27,-2.83 14.32,-1.53 0.37,8.32 1.05,16.75 0.07,24.61 0,3.27 -2.52,4.59 -5.44,5.6 -53.2,-15.63 -92.04,-64.8 -92.04,-123.06 0,-70.83 57.42,-128.25 128.25,-128.25z"/>
   <g>
    <rect class="fil17" x="299.69" y="447.79" width="251.32" height="251.32"/>
    <path class="fil18" d="M412.9 563.27l23.47 0 0 82.38c0,29.44 -24.18,33.81 -34.71,33.81 -12.19,0 -29.03,-5.05 -35.76,-21.64l19.16 -11.47c5.06,10.36 10.93,12.01 15.86,12.01 4.29,0 11.98,-1.3 11.98,-12.7l0 -82.38z"/>
    <path class="fil18" d="M506.29 592.4l18.13 -11.56c-4.68,-10.49 -15.92,-18.84 -33.2,-18.84 -12.69,0 -34.91,6.16 -34.91,31.2 0,40.22 51.54,33.32 51.54,53.84 0,5.53 -4.94,11.45 -16.2,11.45 -7.87,0 -17.14,-3.14 -23.19,-14.29l-18.98 11.14c2.37,12.11 22.47,24.11 42.14,24.11 20.1,0 39.7,-10.12 39.7,-31.26 0,-44.87 -51.77,-33.02 -51.77,-55.55 0,-6.55 6,-10.2 11.84,-10.22 5.94,-0.01 11.74,3.72 14.9,9.99z"/>
   </g>
   <path class="fil19" d="M614.52 447.79l202.46 0c13.44,0 24.43,10.99 24.43,24.43l0 202.46c0,13.44 -10.99,24.43 -24.43,24.43l-202.46 0c-13.44,0 -24.43,-10.99 -24.43,-24.43l0 -202.46c0,-13.44 10.99,-24.43 24.43,-24.43zm33.38 119.64l87.75 0 0 19.64 -31.32 0 0 90.11 -25.11 0 0 -90.11 -31.32 0 0 -19.64zm97.88 80.6c32.39,20.75 49.09,7.44 49.09,-0.2 0,-19.56 -49.48,-11.87 -49.48,-51.74 0,-19.2 21.06,-40.2 70.55,-27.28l0 22.99c-13.11,-10.04 -44.2,-11.4 -44.2,2.71 0,20.25 49.07,13.54 49.07,52.7 0,21.52 -19.13,31.38 -42.29,31.38 -10.51,0 -22.03,-0.68 -32.73,-6.04l0 -24.51z"/>
   <path class="fil20" d="M355.17 737.83l140.35 0c30.51,0 55.48,24.97 55.48,55.48l0 140.36c0,30.51 -24.97,55.48 -55.48,55.48l-140.35 0c-30.51,0 -55.48,-24.97 -55.48,-55.48l0 -140.36c0,-30.51 24.97,-55.48 55.48,-55.48zm148.31 146.19l0 57.49 -33.22 0 0 -57.49c0,-20.31 -10.44,-23.5 -16.53,-23.5 -14.92,0 -20.45,14.8 -20.45,21.19l0 59.8 -33.22 0 0 -107.18 33.22 0 0 14.73c6.11,-11.4 20.59,-17.58 31.99,-17.43 27.61,0.37 38.21,18.86 38.21,52.38zm-156.88 -49.69l33.23 0 0 107.18 -33.23 0 0 -107.18zm16.47 -52.51c10.73,0 19.43,8.7 19.43,19.43 0,10.73 -8.7,19.43 -19.43,19.43 -10.73,0 -19.43,-8.7 -19.43,-19.43 0,-10.73 8.7,-19.43 19.43,-19.43z"/>
   <g>
    <path class="fil15 str3" d="M1248.61 130.35l202.46 0c13.44,0 24.43,10.99 24.43,24.43l0 202.46c0,13.44 -10.99,24.43 -24.43,24.43l-202.46 0c-13.44,0 -24.43,-10.99 -24.43,-24.43l0 -202.46c0,-13.44 10.99,-24.43 24.43,-24.43z"/>
    <path class="fil21" d="M1290.11 233.96c5.02,5.76 12.79,7.42 19.81,7.42 32.02,0 57.48,-24.45 57.48,-42.14 0,-11.68 -12.67,-15.66 -25.5,-15.66 -35.47,0 -89.9,31.35 -89.9,57.34 0,20.6 24.17,28.4 36.26,42.6l22.98 -12.73c7.3,-9.89 15.65,-13.68 20.39,-13.68 4.38,0 8.82,2.76 6.95,14.87 1.77,-2.13 3.93,-1.76 5.24,-1.15 1.17,0.54 3.3,1.73 2.33,4.29 -1.97,9.39 -6.39,20.86 -5.92,28.16 0.08,1.39 0.49,1.48 1.27,0.14 8.64,-17.9 17.61,-36.01 20.97,-45.82 1.13,-3.3 1.81,-5.86 1.87,-6.7 0.07,-1.71 6.03,-2.43 8.59,-2.43 1.99,0 6.26,0.32 5.58,2.87 -4.23,9.93 -3.36,18.56 1.05,26.29 4.15,-6.64 9.96,-17.55 13.09,-24.19 2.18,-4.61 1.1,-5.16 2.86,-9.56 0.25,-0.67 2,-2.24 8.41,-2.24 5.3,0 5.83,1.86 5.83,2.49 -4.31,9.71 -4.17,19.55 2.34,29.59 6.09,-3.43 14.9,-4.77 22.1,-4.77 13.61,0 30.66,9.18 30.66,24.57 0,5.83 -3.18,12.25 -10.62,14.94 -2.05,0.73 -2.77,-0.83 -1.84,-1.54 5.97,-3.52 7.73,-7.67 7.73,-11.66 0,-9.64 -11.17,-18.58 -28.96,-18.65 -7.12,-0.02 -10.88,0.87 -16.62,2.94 0.99,2.86 1.96,5.77 1.96,8.83 0,9.3 -13.37,19.06 -21.5,19.06 -4.36,0 -5.5,-3.43 -5.5,-5.65 0,-9.31 8.04,-17.79 13.41,-22.16 -3.25,-5.81 -5.25,-12.01 -6.31,-18.49 -4.17,9.66 -9.21,15.69 -13.81,23.53 1.36,3.38 2.65,6.99 2.65,10.92 0,13.27 -15.32,19.25 -24.23,19.25 -4.24,0 -5.63,-1.89 -5.63,-3.6 0,-5.15 10.76,-13.06 17.04,-23.26 -3.53,-6.05 -5.84,-12.75 -7.01,-20.06 -6.01,13.86 -19.78,50.22 -29.41,50.22 -4.76,0 -7.83,-5.36 -5.83,-18.62 -7.43,17.88 -9.81,21.74 -15.45,21.74 -7.76,0 -17.49,-13.85 -9.49,-39.17l-12.92 7.35c1.83,3.98 3.03,9.09 3.03,13.64 0,25.03 -19.15,39.27 -36.7,39.27 -14.06,0 -16.66,-9.44 -16.66,-16.49 0,-19.38 25.91,-30.34 37.77,-37.78 -15.68,-13.01 -45.16,-26.93 -45.16,-48.45 0,-30.97 61.47,-69.98 104.58,-69.98 17.34,0 40.52,6.7 40.52,28.15 0,23.38 -25.81,51.27 -65.23,51.27 -9.08,0 -13.37,-1.28 -18.78,-4.27 -3.82,-2.11 -6.76,-5.06 -7.87,-9.01 -0.35,-1.58 -0.05,-1.91 0.26,-2.22 0.35,-0.36 0.94,-0.61 1.83,0.38zm-4.65 58.84c5.98,23.23 -13.51,36.64 -23.31,36.64 -5.16,0 -5.76,-3.93 -5.76,-6.38 0,-8.98 9.07,-19.07 29.07,-30.25zm40.89 -24.37c7.41,-5.1 6.8,-0.72 6.38,1.39 -2.79,11 -7.47,22.93 -13.08,35.33 -2.07,3.35 -3.57,2.93 -4.62,-0.56 -4.21,-14.2 7.23,-32.75 11.33,-36.16zm38.47 38.59c4.34,-4.26 7.35,-8.57 11.03,-12.86 0.08,5.49 -3.43,9.95 -10.03,13.51 -1.36,0.51 -1.72,0.13 -1,-0.65zm32.49 -8.38c1.3,-7.14 5.35,-11.36 8.92,-14.68 2.32,6.35 -1.03,13.79 -8.06,16.07 -0.99,0.43 -0.97,-0.5 -0.86,-1.39z"/>
   </g>
  </g>
 </g>
</svg>
