<?xml version="1.0" encoding="UTF-8"?>
<!DOCTYPE svg PUBLIC "-//W3C//DTD SVG 1.1//EN" "http://www.w3.org/Graphics/SVG/1.1/DTD/svg11.dtd">
<!-- Creator: CorelDRAW 2020 (64 Bit) -->
<svg xmlns="http://www.w3.org/2000/svg" xml:space="preserve" width="57.8271mm" height="50.1294mm" version="1.1" style="shape-rendering:geometricPrecision; text-rendering:geometricPrecision; image-rendering:optimizeQuality; fill-rule:evenodd; clip-rule:evenodd"
viewBox="0 0 2351.25 2038.26"
 xmlns:xlink="http://www.w3.org/1999/xlink"
 xmlns:xodm="http://www.corel.com/coreldraw/odm/2003">
 <defs>
  <style type="text/css">
   <![CDATA[
    .str0 {stroke:black;stroke-width:21.52;stroke-miterlimit:22.9256}
    .str2 {stroke:black;stroke-width:21.52;stroke-linejoin:round;stroke-miterlimit:22.9256}
    .str1 {stroke:black;stroke-width:21.52;stroke-linejoin:bevel;stroke-miterlimit:22.9256}
    .fil2 {fill:none}
    .fil1 {fill:#FEFEFE}
    .fil15 {fill:#FEFEFE}
    .fil0 {fill:#96989A}
    .fil16 {fill:#373435}
    .fil18 {fill:black}
    .fil5 {fill:#0061A3}
    .fil10 {fill:#0170BA}
    .fil20 {fill:#0A66C2}
    .fil11 {fill:#29A9DF}
    .fil19 {fill:#3178C6}
    .fil14 {fill:#8012FA}
    .fil12 {fill:#CFCFCF}
    .fil4 {fill:#CFCFCF}
    .fil7 {fill:#E44D26}
    .fil9 {fill:#EBEBEB}
    .fil3 {fill:#EBEBEB}
    .fil13 {fill:#F05033}
    .fil8 {fill:#F16529}
    .fil17 {fill:#F7DF1E}
    .fil6 {fill:#FFC200}
   ]]>
  </style>
 </defs>
 <g id="Camada_x0020_1">
  <metadata id="CorelCorpID_0Corel-Layer"/>
  <g id="_2183000666160">
   <path class="fil0 str0" d="M358.51 10.76l1620.75 0c46.3,0 84.17,37.9 84.17,84.17l0 1335.45 -1789.08 0 0 -1335.45c0,-46.3 37.85,-84.17 84.16,-84.17z"/>
   <path class="fil1 str0" d="M359.52 58.66l1618.69 0c21.45,0 38.99,17.44 38.99,38.66l0 1285.39 -1696.65 0 0 -1285.39c0,-21.26 17.53,-38.66 38.96,-38.66z"/>
   <path class="fil0 str0" d="M2063.43 1431.65l268.88 499.72c19.86,36.89 7.09,96.13 -76.27,96.13l-2162.99 0c-68.56,0 -95.48,-58.84 -76.27,-96.13l257.56 -499.72 1789.08 0z"/>
   <line class="fil2 str0" x1="12.02" y1="1949.05" x2="2338.05" y2= "1949.05" />
   <polygon class="fil3 str1" points="379.81,1516.29 1968.69,1516.29 2040.72,1684.18 308.11,1684.18 "/>
   <polygon class="fil4 str0" points="379.81,1516.29 1968.69,1516.29 2004.71,1600.24 343.97,1600.24 "/>
   <polygon class="fil5 str0" points="537.61,1516.29 702.09,1516.29 672.74,1600.24 508.45,1600.24 "/>
   <line class="fil2 str0" x1="856.32" y1="1517.29" x2="838.1" y2= "1599.24" />
   <line class="fil2 str0" x1="1014.28" y1="1517.29" x2="1007.89" y2= "1599.24" />
   <line class="fil2 str0" x1="1174.34" y1="1516.28" x2="1174.34" y2= "1600.24" />
   <line class="fil2 str0" x1="1334.75" y1="1517.29" x2="1341.14" y2= "1599.24" />
   <line class="fil2 str0" x1="1488.64" y1="1517.29" x2="1506.86" y2= "1599.24" />
   <polygon class="fil6 str0" points="1810.2,1516.29 1645.73,1516.29 1675.08,1600.24 1839.37,1600.24 "/>
   <polygon class="fil5 str0" points="343.7,1600.23 540.87,1600.23 505.28,1684.18 308.11,1684.18 "/>
   <polygon class="fil6 str0" points="541.24,1600.23 699.17,1600.23 677.78,1684.18 505.64,1684.18 "/>
   <polygon class="fil5 str0" points="698.61,1600.23 856.54,1600.23 841.82,1684.18 678.14,1684.18 "/>
   <polygon class="fil6 str0" points="2005.12,1600.23 1807.95,1600.23 1843.55,1684.18 2040.72,1684.18 "/>
   <line class="fil2 str0" x1="1014.43" y1="1600.22" x2="1007.45" y2= "1684.18" />
   <line class="fil2 str0" x1="1332.72" y1="1600.22" x2="1339.71" y2= "1684.18" />
   <line class="fil2 str0" x1="1492.07" y1="1600.55" x2="1504.73" y2= "1683.85" />
   <line class="fil2 str0" x1="1650.54" y1="1599.39" x2="1671.31" y2= "1681.04" />
   <polygon class="fil5 str2" points="845.33,1847.53 1504.19,1847.53 1479.06,1684.18 866.55,1684.18 "/>
   <g>
    <g>
     <polygon class="fil7" points="410.57,170.26 700.55,170.26 673.85,465.66 555.05,498.51 436.79,465.42 "/>
     <polygon class="fil8" points="555.08,194.35 674.03,194.35 650.98,446.64 555.08,474.16 "/>
     <polygon class="fil9" points="506.84,304.47 507.6,304.47 603.13,304.47 639.04,304.47 639.04,304.47 639.04,304.47 629.05,415.4 555.23,436.1 480.9,415.17 475.81,358.54 512.2,358.47 515.09,387.87 555.78,398.78 595.14,388.11 599.42,340.6 509.68,340.41 498.16,340.41 473.85,340.41 472.88,340.41 464.23,231.18 464.33,231.18 501.03,231.18 644.99,231.18 642.27,267.13 504.1,267.13 503.88,267.13 "/>
    </g>
    <g>
     <polygon class="fil10" points="789.88,170.26 1079.86,170.26 1053.15,465.66 934.35,498.5 816.1,465.42 "/>
     <polygon class="fil11" points="934.38,194.34 1053.34,194.34 1030.29,446.64 934.38,474.16 "/>
     <polygon class="fil12" points="947.71,304.47 986.22,304.47 1024.93,304.47 1024.93,304.47 1024.93,304.47 1014.16,415.4 934.58,436.1 854.46,415.17 848.97,358.54 888.21,358.47 891.32,387.87 935.18,398.78 977.61,388.11 982.22,340.6 885.48,340.41 873.06,340.41 846.86,340.41 845.81,340.41 842.65,303.43 934.38,262.4 839.18,262.73 836.49,231.18 836.6,231.18 876.16,231.18 1031.34,231.18 1028.42,267.13 "/>
    </g>
    <path class="fil13" d="M862.85 705.07l99.93 -99.93 36.73 36.73c-3.8,9.01 -2.03,19.8 5.3,27.14 2.27,2.27 4.88,4.01 7.66,5.21l0 90.95c-2.85,1.2 -5.52,2.97 -7.84,5.29 -9.67,9.67 -9.67,25.34 0,35.01 9.67,9.67 25.34,9.67 35.01,0 9.66,-9.67 9.66,-25.34 0,-35.01 -2.22,-2.22 -4.76,-3.93 -7.47,-5.13l0 -90.81 35.48 35.48c-3.8,9 -2.03,19.8 5.31,27.14 9.66,9.67 25.34,9.67 35.01,0 9.67,-9.67 9.67,-25.34 0,-35.01 -7.05,-7.05 -17.28,-8.96 -26.05,-5.73l-36.35 -36.35c3.22,-8.77 1.31,-19.01 -5.73,-26.06 -7.05,-7.05 -17.28,-8.95 -26.06,-5.73l-37.05 -37.06 31.95 -31.95c7.14,-7.14 18.81,-7.13 25.94,0l145.81 145.81c7.13,7.13 7.13,18.81 0,25.94l-145.81 145.81c-7.13,7.13 -18.81,7.13 -25.94,-0l-145.8 -145.8c-7.14,-7.13 -7.14,-18.81 -0,-25.94z"/>
    <g>
     <path class="fil14" d="M494.7 553.92l243.22 0c21.1,0 38.36,17.26 38.36,38.36l0 35.46c4.17,39.44 14.55,77.67 45.97,79.71l0 5.75 0 9.48 0 5.75c-31.42,2.04 -41.8,40.27 -45.97,79.71l0 35.65c0,21.1 -17.26,38.36 -38.36,38.36l-243.22 0c-21.1,0 -38.36,-17.26 -38.36,-38.36l0 -37.56c-4.3,-38.76 -14.85,-75.8 -45.77,-77.81l0 -5.75 0 -9.48 0 -5.75c30.91,-2.01 41.47,-39.05 45.77,-77.81l0 -37.37c0,-21.1 17.26,-38.36 38.36,-38.36z"/>
     <path class="fil15" d="M552.87 805.55l78.97 0c43.52,0 54.7,-32.02 54.7,-48.03 0,-14.23 -7.37,-38.78 -39.92,-44.47 24.26,-7.66 31.12,-29.01 31.12,-40.81 0,-14.69 -8.88,-41.51 -51.1,-41.51l-73.77 0 0 81.1 0 4.04 0 89.67zm29.02 -23.07l44.54 0c24.55,0 30.86,-19.1 30.86,-28.65 0,-9.64 -5.37,-27.25 -30.86,-27.25l-44.54 0 0 55.9zm0 -77.77l39.9 0c21.99,0 27.64,-17.56 27.64,-26.33 0,-8.86 -4.81,-25.04 -27.64,-25.04l-39.9 0 0 51.37z"/>
    </g>
    <path class="fil16" d="M1759.68 553.92c92.52,0 167.52,75 167.52,167.52 0,75.71 -50.24,139.68 -119.19,160.43 -3.02,-0.74 -5.36,-2.45 -5.36,-7.63 -3.61,-25.95 7.45,-56.66 -10.83,-77.83 26.9,-1.64 75.81,-18.54 75.81,-80.06 0,-15.54 -7.24,-40.44 -16.58,-48.61 3.78,-16.07 3.24,-31.06 -2.41,-44.77 -12.66,-1.13 -28.27,4.91 -46.35,16.97 -28.02,-7.03 -55.7,-7.1 -83.02,0.24 -18.31,-13.26 -33.13,-18.07 -45.78,-17.65 -6.31,12.29 -7.1,27.22 -2.57,44.69 -10.06,14.56 -16.74,23.4 -16.74,47.91 0,20.01 -0.37,71.48 75.1,81.25 -5.4,6.71 -8.06,14.36 -9.25,22.5 0,0 0,0.02 -0,0.02 -7.74,2.62 -10.19,4.15 -19.09,4.15 -29.59,0 -28.38,-35.41 -55.07,-35.41 -6.01,0 -7.99,1.07 -7.99,2.94 0,6.42 17.84,7.38 24.96,31.91 4.93,16.98 29.28,22.29 37.89,22.24 17.89,-0.11 18.63,-3.7 18.71,-2 0.49,10.87 1.37,21.88 0.09,32.15 0,4.28 -3.29,6 -7.11,7.31 -69.48,-20.41 -120.22,-84.64 -120.22,-160.73 0,-92.52 75,-167.52 167.52,-167.52z"/>
    <g>
     <rect class="fil17" x="1168.02" y="170.25" width="328.25" height="328.25"/>
     <path class="fil18" d="M1315.89 321.08l30.65 0 0 107.59c0,38.45 -31.58,44.16 -45.34,44.16 -15.92,0 -37.91,-6.6 -46.71,-28.27l25.03 -14.98c6.61,13.53 14.28,15.68 20.71,15.68 5.6,0 15.65,-1.7 15.65,-16.59l0 -107.59z"/>
     <path class="fil18" d="M1437.87 359.12l23.68 -15.11c-6.11,-13.7 -20.79,-24.61 -43.37,-24.61 -16.57,0 -45.59,8.04 -45.59,40.75 0,52.54 67.32,43.52 67.32,70.32 0,7.23 -6.45,14.96 -21.16,14.96 -10.28,0 -22.39,-4.1 -30.28,-18.66l-24.79 14.55c3.09,15.82 29.35,31.49 55.05,31.49 26.25,0 51.85,-13.22 51.85,-40.83 0,-58.61 -67.62,-43.13 -67.62,-72.56 0,-8.56 7.84,-13.33 15.46,-13.35 7.76,-0.02 15.34,4.86 19.46,13.05z"/>
    </g>
    <path class="fil19" d="M1630.84 170.25l264.44 0c17.55,0 31.91,14.36 31.91,31.91l0 264.44c0,17.55 -14.36,31.91 -31.91,31.91l-264.44 0c-17.55,0 -31.91,-14.36 -31.91,-31.91l0 -264.44c0,-17.55 14.36,-31.91 31.91,-31.91zm43.6 156.27l114.61 0 0 25.65 -40.91 0 0 117.69 -32.79 0 0 -117.69 -40.91 0 0 -25.65zm127.84 105.27c42.31,27.1 64.11,9.72 64.11,-0.26 0,-25.55 -64.63,-15.5 -64.63,-67.59 0,-25.08 27.51,-52.51 92.15,-35.63l0 30.03c-17.12,-13.12 -57.74,-14.89 -57.74,3.55 0,26.45 64.1,17.69 64.1,68.83 0,28.11 -24.99,40.98 -55.24,40.98 -13.73,0 -28.78,-0.89 -42.75,-7.88l0 -32.02z"/>
    <path class="fil20" d="M1296.46 553.91l183.32 0c39.85,0 72.46,32.61 72.46,72.46l0 183.32c0,39.85 -32.61,72.46 -72.46,72.46l-183.32 0c-39.85,0 -72.46,-32.61 -72.46,-72.46l0 -183.32c0,-39.85 32.61,-72.46 72.46,-72.46zm193.71 190.95l0 75.09 -43.39 0 0 -75.09c0,-26.52 -13.64,-30.7 -21.59,-30.7 -19.48,0 -26.71,19.33 -26.71,27.68l0 78.11 -43.39 0 0 -139.99 43.39 0 0 19.24c7.98,-14.89 26.9,-22.96 41.78,-22.76 36.07,0.48 49.91,24.63 49.91,68.42zm-204.9 -64.9l43.4 0 0 139.99 -43.4 0 0 -139.99zm21.52 -68.59c14.02,0 25.38,11.36 25.38,25.38 0,14.02 -11.36,25.38 -25.38,25.38 -14.02,0 -25.38,-11.36 -25.38,-25.38 0,-14.02 11.36,-25.38 25.38,-25.38z"/>
   </g>
  </g>
 </g>
</svg>
