<?xml version="1.0" encoding="UTF-8"?>
<!DOCTYPE svg PUBLIC "-//W3C//DTD SVG 1.1//EN" "http://www.w3.org/Graphics/SVG/1.1/DTD/svg11.dtd">
<!-- Creator: CorelDRAW 2020 (64 Bit) -->
<svg xmlns="http://www.w3.org/2000/svg" xml:space="preserve" width="20mm" height="20mm" version="1.1" style="shape-rendering:geometricPrecision; text-rendering:geometricPrecision; image-rendering:optimizeQuality; fill-rule:evenodd; clip-rule:evenodd"
viewBox="0 0 388.83 388.83"
 xmlns:xlink="http://www.w3.org/1999/xlink"
 xmlns:xodm="http://www.corel.com/coreldraw/odm/2003">
 <defs>
  <style type="text/css">
   <![CDATA[
    .fil0 {fill:#FEFEFE}
    .fil1 {fill:#CD6799}
   ]]>
  </style>
 </defs>
 <g id="Camada_x0020_1">
  <metadata id="CorelCorpID_0Corel-Layer"/>
  <g id="_3278759755920">
   <path class="fil0" d="M37.79 0l313.24 0c20.79,0 37.79,17.01 37.79,37.79l0 313.24c0,20.79 -17.01,37.79 -37.79,37.79l-313.24 0c-20.79,0 -37.79,-17.01 -37.79,-37.79l0 -313.24c0,-20.79 17.01,-37.79 37.79,-37.79z"/>
   <path class="fil1" d="M102.01 160.3c7.77,8.91 19.8,11.48 30.66,11.48 49.54,0 88.93,-37.82 88.93,-65.21 0,-18.07 -19.6,-24.23 -39.45,-24.23 -54.87,0 -139.09,48.51 -139.09,88.72 0,31.86 37.4,43.94 56.1,65.9l35.55 -19.69c11.29,-15.3 24.22,-21.17 31.55,-21.17 6.77,0 13.64,4.28 10.75,23.01 2.75,-3.29 6.09,-2.72 8.11,-1.78 1.81,0.84 5.1,2.68 3.61,6.63 -3.05,14.52 -9.88,32.27 -9.16,43.58 0.12,2.14 0.76,2.29 1.97,0.22 13.36,-27.7 27.24,-55.72 32.44,-70.89 1.75,-5.1 2.8,-9.07 2.89,-10.36 0.1,-2.65 9.34,-3.76 13.3,-3.76 3.08,0 9.69,0.5 8.63,4.44 -6.54,15.36 -5.2,28.71 1.62,40.67 6.42,-10.27 15.41,-27.15 20.26,-37.42 3.37,-7.14 1.71,-7.99 4.42,-14.8 0.39,-1.04 3.09,-3.47 13.02,-3.47 8.2,0 9.02,2.87 9.02,3.86 -6.67,15.02 -6.46,30.25 3.62,45.79 9.42,-5.31 23.05,-7.37 34.2,-7.37 21.05,0 47.44,14.21 47.44,38.01 0,9.03 -4.92,18.96 -16.43,23.12 -3.17,1.13 -4.29,-1.29 -2.85,-2.38 9.24,-5.45 11.97,-11.87 11.97,-18.05 0,-14.92 -17.29,-28.75 -44.81,-28.85 -11.02,-0.04 -16.83,1.35 -25.71,4.54 1.53,4.43 3.04,8.93 3.04,13.65 0,14.39 -20.69,29.49 -33.27,29.49 -6.75,0 -8.51,-5.31 -8.51,-8.74 0,-14.41 12.44,-27.52 20.74,-34.29 -5.04,-8.99 -8.12,-18.58 -9.76,-28.62 -6.46,14.94 -14.24,24.27 -21.37,36.41 2.11,5.24 4.1,10.82 4.1,16.9 0,20.54 -23.71,29.79 -37.5,29.79 -6.57,0 -8.71,-2.92 -8.71,-5.56 0,-7.96 16.65,-20.21 26.36,-35.99 -5.46,-9.36 -9.04,-19.73 -10.85,-31.03 -9.3,21.44 -30.61,77.71 -45.5,77.71 -7.36,0 -12.11,-8.29 -9.02,-28.81 -11.5,27.66 -15.18,33.64 -23.91,33.64 -12.01,0 -27.06,-21.43 -14.68,-60.61l-19.98 11.38c2.83,6.15 4.69,14.07 4.69,21.1 0,38.73 -29.63,60.75 -56.78,60.75 -21.76,0 -25.78,-14.6 -25.78,-25.51 0,-29.99 40.1,-46.95 58.44,-58.46 -24.26,-20.12 -69.88,-41.67 -69.88,-74.96 0,-47.91 95.11,-108.28 161.8,-108.28 26.83,0 62.7,10.37 62.7,43.56 0,36.17 -39.94,79.32 -100.93,79.32 -14.05,0 -20.68,-1.98 -29.06,-6.6 -5.91,-3.26 -10.46,-7.83 -12.18,-13.94 -0.53,-2.45 -0.08,-2.95 0.39,-3.44 0.55,-0.56 1.46,-0.94 2.84,0.58zm-7.2 91.03c9.25,35.94 -20.9,56.68 -36.07,56.68 -7.99,0 -8.91,-6.09 -8.91,-9.87 0,-13.9 14.03,-29.5 44.98,-46.81zm63.26 -37.71c11.47,-7.9 10.52,-1.11 9.87,2.15 -4.32,17.01 -11.56,35.47 -20.24,54.66 -3.2,5.18 -5.53,4.52 -7.15,-0.87 -6.51,-21.97 11.19,-50.67 17.52,-55.94zm59.52 59.71c6.72,-6.58 11.38,-13.26 17.07,-19.9 0.12,8.5 -5.31,15.39 -15.53,20.9 -2.1,0.79 -2.65,0.2 -1.54,-1zm50.27 -12.96c2.01,-11.05 8.27,-17.58 13.8,-22.72 3.59,9.82 -1.59,21.34 -12.47,24.87 -1.53,0.66 -1.5,-0.77 -1.33,-2.15z"/>
  </g>
 </g>
</svg>
