<?xml version="1.0" encoding="UTF-8"?>
<!DOCTYPE svg PUBLIC "-//W3C//DTD SVG 1.1//EN" "http://www.w3.org/Graphics/SVG/1.1/DTD/svg11.dtd">
<!-- Creator: CorelDRAW 2020 (64 Bit) -->
<svg xmlns="http://www.w3.org/2000/svg" xml:space="preserve" width="20mm" height="20mm" version="1.1" style="shape-rendering:geometricPrecision; text-rendering:geometricPrecision; image-rendering:optimizeQuality; fill-rule:evenodd; clip-rule:evenodd"
viewBox="0 0 255.12 255.12"
 xmlns:xlink="http://www.w3.org/1999/xlink"
 xmlns:xodm="http://www.corel.com/coreldraw/odm/2003">
 <defs>
  <style type="text/css">
   <![CDATA[
    .fil0 {fill:#3178C6}
   ]]>
  </style>
 </defs>
 <g id="Camada_x0020_1">
  <metadata id="CorelCorpID_0Corel-Layer"/>
  <path class="fil0" d="M24.8 0l205.53 0c13.64,0 24.8,11.16 24.8,24.8l0 205.53c0,13.64 -11.16,24.8 -24.8,24.8l-205.53 0c-13.64,0 -24.8,-11.16 -24.8,-24.8l0 -205.53c0,-13.64 11.16,-24.8 24.8,-24.8zm33.89 121.45l89.07 0 0 19.94 -31.79 0 0 91.47 -25.49 0 0 -91.47 -31.79 0 0 -19.94zm99.36 81.82c32.89,21.06 49.83,7.55 49.83,-0.21 0,-19.85 -50.23,-12.05 -50.23,-52.53 0,-19.5 21.38,-40.81 71.62,-27.7l0 23.34c-13.31,-10.19 -44.87,-11.57 -44.87,2.76 0,20.56 49.82,13.75 49.82,53.49 0,21.85 -19.42,31.85 -42.93,31.85 -10.67,0 -22.37,-0.69 -33.23,-6.13l0 -24.89z"/>
 </g>
</svg>
