<?xml version="1.0" encoding="UTF-8"?>
<!DOCTYPE svg PUBLIC "-//W3C//DTD SVG 1.1//EN" "http://www.w3.org/Graphics/SVG/1.1/DTD/svg11.dtd">
<!-- Creator: CorelDRAW 2020 (64 Bit) -->
<svg xmlns="http://www.w3.org/2000/svg" xml:space="preserve" width="25.3552mm" height="25.3552mm" version="1.1" style="shape-rendering:geometricPrecision; text-rendering:geometricPrecision; image-rendering:optimizeQuality; fill-rule:evenodd; clip-rule:evenodd"
viewBox="0 0 2736.64 2736.64"
 xmlns:xlink="http://www.w3.org/1999/xlink"
 xmlns:xodm="http://www.corel.com/coreldraw/odm/2003">
 <defs>
  <style type="text/css">
   <![CDATA[
    .fil1 {fill:#FEFEFE}
    .fil0 {fill:#33CC33}
   ]]>
  </style>
 </defs>
 <g id="Camada_x0020_1">
  <metadata id="CorelCorpID_0Corel-Layer"/>
  <g id="_2177052179056">
   <rect class="fil0" x="0" y="0" width="2736.64" height="2736.64" rx="1368.32" ry="1368.32"/>
   <path class="fil1" d="M1389.68 524.53c455.17,0 824.17,369 824.17,824.16 0,455.17 -369,824.17 -824.17,824.17 -148.62,0 -288.05,-39.38 -408.45,-108.21l-449.33 144.43 144.45 -447.42c-70.46,-121.42 -110.82,-262.48 -110.82,-412.97 0,-455.16 369,-824.16 824.16,-824.16zm0 134.26c381.03,0 689.91,308.88 689.91,689.9 0,381.02 -308.88,689.91 -689.91,689.91 -148.34,0 -285.75,-46.84 -398.26,-126.52l-242.92 78.08 78.28 -242.5c-79.98,-112.64 -127,-250.31 -127,-398.97 0,-381.02 308.89,-689.9 689.9,-689.9z"/>
   <path class="fil1" d="M992.85 1218.17c-23.67,-167.34 20.32,-268.72 179.05,-258.25l94.1 182.78c23.51,46.93 -88.05,101.46 -61.15,153.46 56.97,99.89 156.02,185.33 263.64,225.29 74.05,37.67 105.89,-117.14 163.89,-92.13l176.56 86.99c-7.58,181.44 -113.52,238.71 -312.57,178.48 -247.38,-85.81 -443.04,-262.58 -503.5,-476.62z"/>
  </g>
 </g>
</svg>
